<svg xmlns="http://www.w3.org/2000/svg" width="1024" height="1024" viewBox="0 0 1024 1024">
  <rect width="1024" height="1024" fill="#4f46e5"/>
  <g transform="translate(192 192) scale(42.6667)" fill="#ffffff">
    <path d="M13 13V7.5c0-.28-.22-.5-.5-.5h-10c-.28 0-.5.22-.5.5V13H0V9.5C0 5.36 3.36 2 7.5 2S15 5.36 15 9.5V13zM3.5 5c-.28 0-.5.22-.5.5s.22.5.5.5h3c.28 0 .5-.22.5-.5S6.78 5 6.5 5zm5 0c-.28 0-.5.22-.5.5s.22.5.5.5h3c.28 0 .5-.22.5-.5s-.22-.5-.5-.5zM3 12h4v1H3zm0-2h4v1H3zm0-2h4v1H3zm5 0h4v1H8zm0 2h4v1H8zm0 2h4v1H8z"/>
  </g>
</svg>
